<svg id="visual" viewBox="0 0 900 600" width="900" height="600" xmlns="http://www.w3.org/2000/svg" xmlns:xlink="http://www.w3.org/1999/xlink" version="1.1"><path d="M0 79L225 115L450 91L675 85L900 67L900 0L675 0L450 0L225 0L0 0Z" fill="#021a18"></path><path d="M0 151L225 175L450 217L675 229L900 151L900 65L675 83L450 89L225 113L0 77Z" fill="#056c5a"></path><path d="M0 241L225 259L450 313L675 301L900 217L900 149L675 227L450 215L225 173L0 149Z" fill="#24a37d"></path><path d="M0 445L225 439L450 469L675 421L900 331L900 215L675 299L450 311L225 257L0 239Z" fill="#056c5a"></path><path d="M0 601L225 601L450 601L675 601L900 601L900 329L675 419L450 467L225 437L0 443Z" fill="#021a18"></path></svg>