<svg id="visual" viewBox="0 0 900 600" width="900" height="600" xmlns="http://www.w3.org/2000/svg" xmlns:xlink="http://www.w3.org/1999/xlink" version="1.1"><path d="M0 79L18.8 73C37.7 67 75.3 55 112.8 50C150.3 45 187.7 47 225.2 46C262.7 45 300.3 41 337.8 43C375.3 45 412.7 53 450.2 58C487.7 63 525.3 65 562.8 63C600.3 61 637.7 55 675.2 53C712.7 51 750.3 53 787.8 57C825.3 61 862.7 67 881.3 70L900 73L900 0L881.3 0C862.7 0 825.3 0 787.8 0C750.3 0 712.7 0 675.2 0C637.7 0 600.3 0 562.8 0C525.3 0 487.7 0 450.2 0C412.7 0 375.3 0 337.8 0C300.3 0 262.7 0 225.2 0C187.7 0 150.3 0 112.8 0C75.3 0 37.7 0 18.8 0L0 0Z" fill="#0c0c0c"></path><path d="M0 115L18.8 109C37.7 103 75.3 91 112.8 87C150.3 83 187.7 87 225.2 88C262.7 89 300.3 87 337.8 88C375.3 89 412.7 93 450.2 97C487.7 101 525.3 105 562.8 105C600.3 105 637.7 101 675.2 99C712.7 97 750.3 97 787.8 99C825.3 101 862.7 105 881.3 107L900 109L900 71L881.3 68C862.7 65 825.3 59 787.8 55C750.3 51 712.7 49 675.2 51C637.7 53 600.3 59 562.8 61C525.3 63 487.7 61 450.2 56C412.7 51 375.3 43 337.8 41C300.3 39 262.7 43 225.2 44C187.7 45 150.3 43 112.8 48C75.3 53 37.7 65 18.8 71L0 77Z" fill="#232323"></path><path d="M0 175L18.8 177C37.7 179 75.3 183 112.8 185C150.3 187 187.7 187 225.2 195C262.7 203 300.3 219 337.8 225C375.3 231 412.7 227 450.2 224C487.7 221 525.3 219 562.8 218C600.3 217 637.7 217 675.2 218C712.7 219 750.3 221 787.8 222C825.3 223 862.7 223 881.3 223L900 223L900 107L881.3 105C862.7 103 825.3 99 787.8 97C750.3 95 712.7 95 675.2 97C637.7 99 600.3 103 562.8 103C525.3 103 487.7 99 450.2 95C412.7 91 375.3 87 337.8 86C300.3 85 262.7 87 225.2 86C187.7 85 150.3 81 112.8 85C75.3 89 37.7 101 18.8 107L0 113Z" fill="#393939"></path><path d="M0 241L18.8 248C37.7 255 75.3 269 112.8 278C150.3 287 187.7 291 225.2 298C262.7 305 300.3 315 337.8 319C375.3 323 412.7 321 450.2 316C487.7 311 525.3 303 562.8 302C600.3 301 637.7 307 675.2 304C712.7 301 750.3 289 787.8 283C825.3 277 862.7 277 881.3 277L900 277L900 221L881.3 221C862.7 221 825.3 221 787.8 220C750.3 219 712.7 217 675.2 216C637.7 215 600.3 215 562.8 216C525.3 217 487.7 219 450.2 222C412.7 225 375.3 229 337.8 223C300.3 217 262.7 201 225.2 193C187.7 185 150.3 185 112.8 183C75.3 181 37.7 177 18.8 175L0 173Z" fill="#515151"></path><path d="M0 295L18.8 301C37.7 307 75.3 319 112.8 329C150.3 339 187.7 347 225.2 352C262.7 357 300.3 359 337.8 359C375.3 359 412.7 357 450.2 355C487.7 353 525.3 351 562.8 352C600.3 353 637.7 357 675.2 355C712.7 353 750.3 345 787.8 337C825.3 329 862.7 321 881.3 317L900 313L900 275L881.3 275C862.7 275 825.3 275 787.8 281C750.3 287 712.7 299 675.2 302C637.7 305 600.3 299 562.8 300C525.3 301 487.7 309 450.2 314C412.7 319 375.3 321 337.8 317C300.3 313 262.7 303 225.2 296C187.7 289 150.3 285 112.8 276C75.3 267 37.7 253 18.8 246L0 239Z" fill="#565656"></path><path d="M0 337L18.8 339C37.7 341 75.3 345 112.8 352C150.3 359 187.7 369 225.2 375C262.7 381 300.3 383 337.8 383C375.3 383 412.7 381 450.2 379C487.7 377 525.3 375 562.8 377C600.3 379 637.7 385 675.2 382C712.7 379 750.3 367 787.8 359C825.3 351 862.7 347 881.3 345L900 343L900 311L881.3 315C862.7 319 825.3 327 787.8 335C750.3 343 712.7 351 675.2 353C637.7 355 600.3 351 562.8 350C525.3 349 487.7 351 450.2 353C412.7 355 375.3 357 337.8 357C300.3 357 262.7 355 225.2 350C187.7 345 150.3 337 112.8 327C75.3 317 37.7 305 18.8 299L0 293Z" fill="#515151"></path><path d="M0 493L18.8 502C37.7 511 75.3 529 112.8 532C150.3 535 187.7 523 225.2 513C262.7 503 300.3 495 337.8 494C375.3 493 412.7 499 450.2 501C487.7 503 525.3 501 562.8 501C600.3 501 637.7 503 675.2 504C712.7 505 750.3 505 787.8 503C825.3 501 862.7 497 881.3 495L900 493L900 341L881.3 343C862.7 345 825.3 349 787.8 357C750.3 365 712.7 377 675.2 380C637.7 383 600.3 377 562.8 375C525.3 373 487.7 375 450.2 377C412.7 379 375.3 381 337.8 381C300.3 381 262.7 379 225.2 373C187.7 367 150.3 357 112.8 350C75.3 343 37.7 339 18.8 337L0 335Z" fill="#393939"></path><path d="M0 553L18.8 557C37.7 561 75.3 569 112.8 573C150.3 577 187.7 577 225.2 573C262.7 569 300.3 561 337.8 557C375.3 553 412.7 553 450.2 554C487.7 555 525.3 557 562.8 557C600.3 557 637.7 555 675.2 557C712.7 559 750.3 565 787.8 565C825.3 565 862.7 559 881.3 556L900 553L900 491L881.3 493C862.7 495 825.3 499 787.8 501C750.3 503 712.7 503 675.2 502C637.7 501 600.3 499 562.8 499C525.3 499 487.7 501 450.2 499C412.7 497 375.3 491 337.8 492C300.3 493 262.7 501 225.2 511C187.7 521 150.3 533 112.8 530C75.3 527 37.7 509 18.8 500L0 491Z" fill="#232323"></path><path d="M0 601L18.8 601C37.7 601 75.3 601 112.8 601C150.3 601 187.7 601 225.2 601C262.7 601 300.3 601 337.8 601C375.3 601 412.7 601 450.2 601C487.7 601 525.3 601 562.8 601C600.3 601 637.7 601 675.2 601C712.7 601 750.3 601 787.8 601C825.3 601 862.7 601 881.3 601L900 601L900 551L881.3 554C862.7 557 825.3 563 787.8 563C750.3 563 712.7 557 675.2 555C637.7 553 600.3 555 562.8 555C525.3 555 487.7 553 450.2 552C412.7 551 375.3 551 337.8 555C300.3 559 262.7 567 225.2 571C187.7 575 150.3 575 112.8 571C75.3 567 37.7 559 18.8 555L0 551Z" fill="#0c0c0c"></path></svg>