<svg id="visual" viewBox="0 0 900 600" width="900" height="600" xmlns="http://www.w3.org/2000/svg" xmlns:xlink="http://www.w3.org/1999/xlink" version="1.1"><path d="M0 127L150 85L300 91L450 85L600 103L750 61L900 43L900 0L750 0L600 0L450 0L300 0L150 0L0 0Z" fill="#00332d"></path><path d="M0 289L150 169L300 253L450 283L600 307L750 253L900 307L900 41L750 59L600 101L450 83L300 89L150 83L0 125Z" fill="#173e37"></path><path d="M0 355L150 241L300 337L450 385L600 349L750 325L900 355L900 305L750 251L600 305L450 281L300 251L150 167L0 287Z" fill="#294941"></path><path d="M0 487L150 457L300 499L450 535L600 451L750 481L900 511L900 353L750 323L600 347L450 383L300 335L150 239L0 353Z" fill="#39544c"></path><path d="M0 601L150 601L300 601L450 601L600 601L750 601L900 601L900 509L750 479L600 449L450 533L300 497L150 455L0 485Z" fill="#495f58"></path></svg>