<svg id="visual" viewBox="0 0 900 600" width="900" height="600" xmlns="http://www.w3.org/2000/svg" xmlns:xlink="http://www.w3.org/1999/xlink" version="1.1"><path d="M0 73L8.8 71C17.7 69 35.3 65 53 68C70.7 71 88.3 81 106 83C123.7 85 141.3 79 159 73C176.7 67 194.3 61 212 60C229.7 59 247.3 63 265 65C282.7 67 300.3 67 318 66C335.7 65 353.3 63 371 67C388.7 71 406.3 81 423.8 81C441.3 81 458.7 71 476.2 64C493.7 57 511.3 53 529 52C546.7 51 564.3 53 582 58C599.7 63 617.3 71 635 77C652.7 83 670.3 87 688 86C705.7 85 723.3 79 741 77C758.7 75 776.3 77 794 81C811.7 85 829.3 91 847 86C864.7 81 882.3 65 891.2 57L900 49L900 0L891.2 0C882.3 0 864.7 0 847 0C829.3 0 811.7 0 794 0C776.3 0 758.7 0 741 0C723.3 0 705.7 0 688 0C670.3 0 652.7 0 635 0C617.3 0 599.7 0 582 0C564.3 0 546.7 0 529 0C511.3 0 493.7 0 476.2 0C458.7 0 441.3 0 423.8 0C406.3 0 388.7 0 371 0C353.3 0 335.7 0 318 0C300.3 0 282.7 0 265 0C247.3 0 229.7 0 212 0C194.3 0 176.7 0 159 0C141.3 0 123.7 0 106 0C88.3 0 70.7 0 53 0C35.3 0 17.7 0 8.8 0L0 0Z" fill="#c1c1c1"></path><path d="M0 229L8.8 218C17.7 207 35.3 185 53 191C70.7 197 88.3 231 106 230C123.7 229 141.3 193 159 182C176.7 171 194.3 185 212 192C229.7 199 247.3 199 265 196C282.7 193 300.3 187 318 185C335.7 183 353.3 185 371 184C388.7 183 406.3 179 423.8 180C441.3 181 458.7 187 476.2 195C493.7 203 511.3 213 529 214C546.7 215 564.3 207 582 201C599.7 195 617.3 191 635 201C652.7 211 670.3 235 688 245C705.7 255 723.3 251 741 234C758.7 217 776.3 187 794 180C811.7 173 829.3 189 847 186C864.7 183 882.3 161 891.2 150L900 139L900 47L891.2 55C882.3 63 864.7 79 847 84C829.3 89 811.7 83 794 79C776.3 75 758.7 73 741 75C723.3 77 705.7 83 688 84C670.3 85 652.7 81 635 75C617.3 69 599.7 61 582 56C564.3 51 546.7 49 529 50C511.3 51 493.7 55 476.2 62C458.7 69 441.3 79 423.8 79C406.3 79 388.7 69 371 65C353.3 61 335.7 63 318 64C300.3 65 282.7 65 265 63C247.3 61 229.7 57 212 58C194.3 59 176.7 65 159 71C141.3 77 123.7 83 106 81C88.3 79 70.7 69 53 66C35.3 63 17.7 67 8.8 69L0 71Z" fill="#d7d7d7"></path><path d="M0 301L8.8 285C17.7 269 35.3 237 53 242C70.7 247 88.3 289 106 287C123.7 285 141.3 239 159 226C176.7 213 194.3 233 212 243C229.7 253 247.3 253 265 249C282.7 245 300.3 237 318 235C335.7 233 353.3 237 371 237C388.7 237 406.3 233 423.8 232C441.3 231 458.7 233 476.2 243C493.7 253 511.3 271 529 278C546.7 285 564.3 281 582 272C599.7 263 617.3 249 635 255C652.7 261 670.3 287 688 301C705.7 315 723.3 317 741 297C758.7 277 776.3 235 794 226C811.7 217 829.3 241 847 238C864.7 235 882.3 205 891.2 190L900 175L900 137L891.2 148C882.3 159 864.7 181 847 184C829.3 187 811.7 171 794 178C776.3 185 758.7 215 741 232C723.3 249 705.7 253 688 243C670.3 233 652.7 209 635 199C617.3 189 599.7 193 582 199C564.3 205 546.7 213 529 212C511.3 211 493.7 201 476.2 193C458.7 185 441.3 179 423.8 178C406.3 177 388.7 181 371 182C353.3 183 335.7 181 318 183C300.3 185 282.7 191 265 194C247.3 197 229.7 197 212 190C194.3 183 176.7 169 159 180C141.3 191 123.7 227 106 228C88.3 229 70.7 195 53 189C35.3 183 17.7 205 8.8 216L0 227Z" fill="#ededed"></path><path d="M0 361L8.8 343C17.7 325 35.3 289 53 289C70.7 289 88.3 325 106 322C123.7 319 141.3 277 159 269C176.7 261 194.3 287 212 296C229.7 305 247.3 297 265 288C282.7 279 300.3 269 318 269C335.7 269 353.3 279 371 279C388.7 279 406.3 269 423.8 270C441.3 271 458.7 283 476.2 297C493.7 311 511.3 327 529 329C546.7 331 564.3 319 582 306C599.7 293 617.3 279 635 289C652.7 299 670.3 333 688 348C705.7 363 723.3 359 741 339C758.7 319 776.3 283 794 273C811.7 263 829.3 279 847 273C864.7 267 882.3 239 891.2 225L900 211L900 173L891.2 188C882.3 203 864.7 233 847 236C829.3 239 811.7 215 794 224C776.3 233 758.7 275 741 295C723.3 315 705.7 313 688 299C670.3 285 652.7 259 635 253C617.3 247 599.7 261 582 270C564.3 279 546.7 283 529 276C511.3 269 493.7 251 476.2 241C458.7 231 441.3 229 423.8 230C406.3 231 388.7 235 371 235C353.3 235 335.7 231 318 233C300.3 235 282.7 243 265 247C247.3 251 229.7 251 212 241C194.3 231 176.7 211 159 224C141.3 237 123.7 283 106 285C88.3 287 70.7 245 53 240C35.3 235 17.7 267 8.8 283L0 299Z" fill="#ffffff"></path><path d="M0 469L8.8 461C17.7 453 35.3 437 53 433C70.7 429 88.3 437 106 439C123.7 441 141.3 437 159 438C176.7 439 194.3 445 212 443C229.7 441 247.3 431 265 431C282.7 431 300.3 441 318 446C335.7 451 353.3 451 371 449C388.7 447 406.3 443 423.8 436C441.3 429 458.7 419 476.2 422C493.7 425 511.3 441 529 451C546.7 461 564.3 465 582 464C599.7 463 617.3 457 635 457C652.7 457 670.3 463 688 461C705.7 459 723.3 449 741 443C758.7 437 776.3 435 794 434C811.7 433 829.3 433 847 431C864.7 429 882.3 425 891.2 423L900 421L900 209L891.2 223C882.3 237 864.7 265 847 271C829.3 277 811.7 261 794 271C776.3 281 758.7 317 741 337C723.3 357 705.7 361 688 346C670.3 331 652.7 297 635 287C617.3 277 599.7 291 582 304C564.3 317 546.7 329 529 327C511.3 325 493.7 309 476.2 295C458.7 281 441.3 269 423.8 268C406.3 267 388.7 277 371 277C353.3 277 335.7 267 318 267C300.3 267 282.7 277 265 286C247.3 295 229.7 303 212 294C194.3 285 176.7 259 159 267C141.3 275 123.7 317 106 320C88.3 323 70.7 287 53 287C35.3 287 17.7 323 8.8 341L0 359Z" fill="#ffffff"></path><path d="M0 505L8.8 497C17.7 489 35.3 473 53 470C70.7 467 88.3 477 106 479C123.7 481 141.3 475 159 476C176.7 477 194.3 485 212 487C229.7 489 247.3 485 265 482C282.7 479 300.3 477 318 477C335.7 477 353.3 479 371 481C388.7 483 406.3 485 423.8 480C441.3 475 458.7 463 476.2 464C493.7 465 511.3 479 529 486C546.7 493 564.3 493 582 490C599.7 487 617.3 481 635 482C652.7 483 670.3 491 688 492C705.7 493 723.3 487 741 484C758.7 481 776.3 481 794 477C811.7 473 829.3 465 847 459C864.7 453 882.3 449 891.2 447L900 445L900 419L891.2 421C882.3 423 864.7 427 847 429C829.3 431 811.7 431 794 432C776.3 433 758.7 435 741 441C723.3 447 705.7 457 688 459C670.3 461 652.7 455 635 455C617.3 455 599.7 461 582 462C564.3 463 546.7 459 529 449C511.3 439 493.7 423 476.2 420C458.7 417 441.3 427 423.8 434C406.3 441 388.7 445 371 447C353.3 449 335.7 449 318 444C300.3 439 282.7 429 265 429C247.3 429 229.7 439 212 441C194.3 443 176.7 437 159 436C141.3 435 123.7 439 106 437C88.3 435 70.7 427 53 431C35.3 435 17.7 451 8.8 459L0 467Z" fill="#ededed"></path><path d="M0 559L8.8 558C17.7 557 35.3 555 53 558C70.7 561 88.3 569 106 570C123.7 571 141.3 565 159 561C176.7 557 194.3 555 212 557C229.7 559 247.3 565 265 564C282.7 563 300.3 555 318 553C335.7 551 353.3 555 371 560C388.7 565 406.3 571 423.8 569C441.3 567 458.7 557 476.2 557C493.7 557 511.3 567 529 571C546.7 575 564.3 573 582 568C599.7 563 617.3 555 635 552C652.7 549 670.3 551 688 553C705.7 555 723.3 557 741 559C758.7 561 776.3 563 794 565C811.7 567 829.3 569 847 567C864.7 565 882.3 559 891.2 556L900 553L900 443L891.2 445C882.3 447 864.7 451 847 457C829.3 463 811.7 471 794 475C776.3 479 758.7 479 741 482C723.3 485 705.7 491 688 490C670.3 489 652.7 481 635 480C617.3 479 599.7 485 582 488C564.3 491 546.7 491 529 484C511.3 477 493.7 463 476.2 462C458.7 461 441.3 473 423.8 478C406.3 483 388.7 481 371 479C353.3 477 335.7 475 318 475C300.3 475 282.7 477 265 480C247.3 483 229.7 487 212 485C194.3 483 176.7 475 159 474C141.3 473 123.7 479 106 477C88.3 475 70.7 465 53 468C35.3 471 17.7 487 8.8 495L0 503Z" fill="#d7d7d7"></path><path d="M0 601L8.8 601C17.7 601 35.3 601 53 601C70.7 601 88.3 601 106 601C123.7 601 141.3 601 159 601C176.7 601 194.3 601 212 601C229.7 601 247.3 601 265 601C282.7 601 300.3 601 318 601C335.7 601 353.3 601 371 601C388.7 601 406.3 601 423.8 601C441.3 601 458.7 601 476.2 601C493.7 601 511.3 601 529 601C546.7 601 564.3 601 582 601C599.7 601 617.3 601 635 601C652.7 601 670.3 601 688 601C705.7 601 723.3 601 741 601C758.7 601 776.3 601 794 601C811.7 601 829.3 601 847 601C864.7 601 882.3 601 891.2 601L900 601L900 551L891.2 554C882.3 557 864.7 563 847 565C829.3 567 811.7 565 794 563C776.3 561 758.7 559 741 557C723.3 555 705.7 553 688 551C670.3 549 652.7 547 635 550C617.3 553 599.7 561 582 566C564.3 571 546.7 573 529 569C511.3 565 493.7 555 476.2 555C458.7 555 441.3 565 423.8 567C406.3 569 388.7 563 371 558C353.3 553 335.7 549 318 551C300.3 553 282.7 561 265 562C247.3 563 229.7 557 212 555C194.3 553 176.7 555 159 559C141.3 563 123.7 569 106 568C88.3 567 70.7 559 53 556C35.3 553 17.7 555 8.8 556L0 557Z" fill="#c1c1c1"></path></svg>