<svg id="visual" viewBox="0 0 960 540" width="960" height="540" xmlns="http://www.w3.org/2000/svg" xmlns:xlink="http://www.w3.org/1999/xlink" version="1.1"><path d="M0 39L17.8 38C35.7 37 71.3 35 106.8 35C142.3 35 177.7 37 213.2 36.2C248.7 35.3 284.3 31.7 320 31.7C355.7 31.7 391.3 35.3 426.8 37.2C462.3 39 497.7 39 533.2 38C568.7 37 604.3 35 640 35C675.7 35 711.3 37 746.8 38C782.3 39 817.7 39 853.2 37.2C888.7 35.3 924.3 31.7 942.2 29.8L960 28L960 0L942.2 0C924.3 0 888.7 0 853.2 0C817.7 0 782.3 0 746.8 0C711.3 0 675.7 0 640 0C604.3 0 568.7 0 533.2 0C497.7 0 462.3 0 426.8 0C391.3 0 355.7 0 320 0C284.3 0 248.7 0 213.2 0C177.7 0 142.3 0 106.8 0C71.3 0 35.7 0 17.8 0L0 0Z" fill="#68696d"></path><path d="M0 60L17.8 60C35.7 60 71.3 60 106.8 60C142.3 60 177.7 60 213.2 59.2C248.7 58.3 284.3 56.7 320 57.7C355.7 58.7 391.3 62.3 426.8 63.2C462.3 64 497.7 62 533.2 60.2C568.7 58.3 604.3 56.7 640 56.7C675.7 56.7 711.3 58.3 746.8 59.2C782.3 60 817.7 60 853.2 58.3C888.7 56.7 924.3 53.3 942.2 51.7L960 50L960 26L942.2 27.8C924.3 29.7 888.7 33.3 853.2 35.2C817.7 37 782.3 37 746.8 36C711.3 35 675.7 33 640 33C604.3 33 568.7 35 533.2 36C497.7 37 462.3 37 426.8 35.2C391.3 33.3 355.7 29.7 320 29.7C284.3 29.7 248.7 33.3 213.2 34.2C177.7 35 142.3 33 106.8 33C71.3 33 35.7 35 17.8 36L0 37Z" fill="#5e5f63"></path><path d="M0 168L17.8 167.2C35.7 166.3 71.3 164.7 106.8 167.5C142.3 170.3 177.7 177.7 213.2 178.5C248.7 179.3 284.3 173.7 320 170.8C355.7 168 391.3 168 426.8 167.2C462.3 166.3 497.7 164.7 533.2 163C568.7 161.3 604.3 159.7 640 165C675.7 170.3 711.3 182.7 746.8 184.3C782.3 186 817.7 177 853.2 167.2C888.7 157.3 924.3 146.7 942.2 141.3L960 136L960 48L942.2 49.7C924.3 51.3 888.7 54.7 853.2 56.3C817.7 58 782.3 58 746.8 57.2C711.3 56.3 675.7 54.7 640 54.7C604.3 54.7 568.7 56.3 533.2 58.2C497.7 60 462.3 62 426.8 61.2C391.3 60.3 355.7 56.7 320 55.7C284.3 54.7 248.7 56.3 213.2 57.2C177.7 58 142.3 58 106.8 58C71.3 58 35.7 58 17.8 58L0 58Z" fill="#545559"></path><path d="M0 222L17.8 220.3C35.7 218.7 71.3 215.3 106.8 216.3C142.3 217.3 177.7 222.7 213.2 224.3C248.7 226 284.3 224 320 221.3C355.7 218.7 391.3 215.3 426.8 215.3C462.3 215.3 497.7 218.7 533.2 215.8C568.7 213 604.3 204 640 206.8C675.7 209.7 711.3 224.3 746.8 228C782.3 231.7 817.7 224.3 853.2 217C888.7 209.7 924.3 202.3 942.2 198.7L960 195L960 134L942.2 139.3C924.3 144.7 888.7 155.3 853.2 165.2C817.7 175 782.3 184 746.8 182.3C711.3 180.7 675.7 168.3 640 163C604.3 157.7 568.7 159.3 533.2 161C497.7 162.7 462.3 164.3 426.8 165.2C391.3 166 355.7 166 320 168.8C284.3 171.7 248.7 177.3 213.2 176.5C177.7 175.7 142.3 168.3 106.8 165.5C71.3 162.7 35.7 164.3 17.8 165.2L0 166Z" fill="#4b4c50"></path><path d="M0 249L17.8 247.3C35.7 245.7 71.3 242.3 106.8 244.2C142.3 246 177.7 253 213.2 256.5C248.7 260 284.3 260 320 256.5C355.7 253 391.3 246 426.8 245.2C462.3 244.3 497.7 249.7 533.2 247.8C568.7 246 604.3 237 640 239.7C675.7 242.3 711.3 256.7 746.8 260.2C782.3 263.7 817.7 256.3 853.2 250C888.7 243.7 924.3 238.3 942.2 235.7L960 233L960 193L942.2 196.7C924.3 200.3 888.7 207.7 853.2 215C817.7 222.3 782.3 229.7 746.8 226C711.3 222.3 675.7 207.7 640 204.8C604.3 202 568.7 211 533.2 213.8C497.7 216.7 462.3 213.3 426.8 213.3C391.3 213.3 355.7 216.7 320 219.3C284.3 222 248.7 224 213.2 222.3C177.7 220.7 142.3 215.3 106.8 214.3C71.3 213.3 35.7 216.7 17.8 218.3L0 220Z" fill="#424347"></path><path d="M0 287L17.8 284.3C35.7 281.7 71.3 276.3 106.8 277.3C142.3 278.3 177.7 285.7 213.2 292C248.7 298.3 284.3 303.7 320 300C355.7 296.3 391.3 283.7 426.8 280C462.3 276.3 497.7 281.7 533.2 282.5C568.7 283.3 604.3 279.7 640 282.3C675.7 285 711.3 294 746.8 296.8C782.3 299.7 817.7 296.3 853.2 291C888.7 285.7 924.3 278.3 942.2 274.7L960 271L960 231L942.2 233.7C924.3 236.3 888.7 241.7 853.2 248C817.7 254.3 782.3 261.7 746.8 258.2C711.3 254.7 675.7 240.3 640 237.7C604.3 235 568.7 244 533.2 245.8C497.7 247.7 462.3 242.3 426.8 243.2C391.3 244 355.7 251 320 254.5C284.3 258 248.7 258 213.2 254.5C177.7 251 142.3 244 106.8 242.2C71.3 240.3 35.7 243.7 17.8 245.3L0 247Z" fill="#38393d"></path><path d="M0 309L17.8 306.3C35.7 303.7 71.3 298.3 106.8 299.2C142.3 300 177.7 307 213.2 312.3C248.7 317.7 284.3 321.3 320 317.8C355.7 314.3 391.3 303.7 426.8 300C462.3 296.3 497.7 299.7 533.2 299.7C568.7 299.7 604.3 296.3 640 300C675.7 303.7 711.3 314.3 746.8 317.8C782.3 321.3 817.7 317.7 853.2 311.3C888.7 305 924.3 296 942.2 291.5L960 287L960 269L942.2 272.7C924.3 276.3 888.7 283.7 853.2 289C817.7 294.3 782.3 297.7 746.8 294.8C711.3 292 675.7 283 640 280.3C604.3 277.7 568.7 281.3 533.2 280.5C497.7 279.7 462.3 274.3 426.8 278C391.3 281.7 355.7 294.3 320 298C284.3 301.7 248.7 296.3 213.2 290C177.7 283.7 142.3 276.3 106.8 275.3C71.3 274.3 35.7 279.7 17.8 282.3L0 285Z" fill="#303135"></path><path d="M0 379L17.8 375.3C35.7 371.7 71.3 364.3 106.8 365.2C142.3 366 177.7 375 213.2 381.3C248.7 387.7 284.3 391.3 320 386.8C355.7 382.3 391.3 369.7 426.8 363.3C462.3 357 497.7 357 533.2 357C568.7 357 604.3 357 640 362.5C675.7 368 711.3 379 746.8 382.7C782.3 386.3 817.7 382.7 853.2 378.2C888.7 373.7 924.3 368.3 942.2 365.7L960 363L960 285L942.2 289.5C924.3 294 888.7 303 853.2 309.3C817.7 315.7 782.3 319.3 746.8 315.8C711.3 312.3 675.7 301.7 640 298C604.3 294.3 568.7 297.7 533.2 297.7C497.7 297.7 462.3 294.3 426.8 298C391.3 301.7 355.7 312.3 320 315.8C284.3 319.3 248.7 315.7 213.2 310.3C177.7 305 142.3 298 106.8 297.2C71.3 296.3 35.7 301.7 17.8 304.3L0 307Z" fill="#27282c"></path><path d="M0 406L17.8 401.5C35.7 397 71.3 388 106.8 388.8C142.3 389.7 177.7 400.3 213.2 406.7C248.7 413 284.3 415 320 409.7C355.7 404.3 391.3 391.7 426.8 386.2C462.3 380.7 497.7 382.3 533.2 382.3C568.7 382.3 604.3 380.7 640 385.2C675.7 389.7 711.3 400.3 746.8 404.8C782.3 409.3 817.7 407.7 853.2 403.2C888.7 398.7 924.3 391.3 942.2 387.7L960 384L960 361L942.2 363.7C924.3 366.3 888.7 371.7 853.2 376.2C817.7 380.7 782.3 384.3 746.8 380.7C711.3 377 675.7 366 640 360.5C604.3 355 568.7 355 533.2 355C497.7 355 462.3 355 426.8 361.3C391.3 367.7 355.7 380.3 320 384.8C284.3 389.3 248.7 385.7 213.2 379.3C177.7 373 142.3 364 106.8 363.2C71.3 362.3 35.7 369.7 17.8 373.3L0 377Z" fill="#1f2023"></path><path d="M0 503L17.8 501.2C35.7 499.3 71.3 495.7 106.8 493C142.3 490.3 177.7 488.7 213.2 490.5C248.7 492.3 284.3 497.7 320 498.5C355.7 499.3 391.3 495.7 426.8 495.7C462.3 495.7 497.7 499.3 533.2 499.3C568.7 499.3 604.3 495.7 640 494.8C675.7 494 711.3 496 746.8 497.8C782.3 499.7 817.7 501.3 853.2 501.3C888.7 501.3 924.3 499.7 942.2 498.8L960 498L960 382L942.2 385.7C924.3 389.3 888.7 396.7 853.2 401.2C817.7 405.7 782.3 407.3 746.8 402.8C711.3 398.3 675.7 387.7 640 383.2C604.3 378.7 568.7 380.3 533.2 380.3C497.7 380.3 462.3 378.7 426.8 384.2C391.3 389.7 355.7 402.3 320 407.7C284.3 413 248.7 411 213.2 404.7C177.7 398.3 142.3 387.7 106.8 386.8C71.3 386 35.7 395 17.8 399.5L0 404Z" fill="#17181b"></path><path d="M0 519L17.8 518.2C35.7 517.3 71.3 515.7 106.8 514C142.3 512.3 177.7 510.7 213.2 511.5C248.7 512.3 284.3 515.7 320 516.5C355.7 517.3 391.3 515.7 426.8 515.7C462.3 515.7 497.7 517.3 533.2 516.5C568.7 515.7 604.3 512.3 640 511.5C675.7 510.7 711.3 512.3 746.8 514C782.3 515.7 817.7 517.3 853.2 517.3C888.7 517.3 924.3 515.7 942.2 514.8L960 514L960 496L942.2 496.8C924.3 497.7 888.7 499.3 853.2 499.3C817.7 499.3 782.3 497.7 746.8 495.8C711.3 494 675.7 492 640 492.8C604.3 493.7 568.7 497.3 533.2 497.3C497.7 497.3 462.3 493.7 426.8 493.7C391.3 493.7 355.7 497.3 320 496.5C284.3 495.7 248.7 490.3 213.2 488.5C177.7 486.7 142.3 488.3 106.8 491C71.3 493.7 35.7 497.3 17.8 499.2L0 501Z" fill="#0d0e13"></path><path d="M0 541L17.8 541C35.7 541 71.3 541 106.8 541C142.3 541 177.7 541 213.2 541C248.7 541 284.3 541 320 541C355.7 541 391.3 541 426.8 541C462.3 541 497.7 541 533.2 541C568.7 541 604.3 541 640 541C675.7 541 711.3 541 746.8 541C782.3 541 817.7 541 853.2 541C888.7 541 924.3 541 942.2 541L960 541L960 512L942.2 512.8C924.3 513.7 888.7 515.3 853.2 515.3C817.7 515.3 782.3 513.7 746.8 512C711.3 510.3 675.7 508.7 640 509.5C604.3 510.3 568.7 513.7 533.2 514.5C497.7 515.3 462.3 513.7 426.8 513.7C391.3 513.7 355.7 515.3 320 514.5C284.3 513.7 248.7 510.3 213.2 509.5C177.7 508.7 142.3 510.3 106.8 512C71.3 513.7 35.7 515.3 17.8 516.2L0 517Z" fill="#000000"></path></svg>