<svg xmlns="http://www.w3.org/2000/svg" viewBox="0 0 1920 1080"><g transform="
          rotate(0 960 540) 
          translate(-0 -0)
          scale(1)
        "><rect width="1920" height="1080" fill="rgb(21, 21, 21)"></rect><g transform="translate(0, 0)"><path fill="rgb(26, 26, 26)" fill-opacity="1" d="M0,105.883L45.714,105.023C91.429,104.162,182.857,102.441,274.286,102.174C365.714,101.908,457.143,103.095,548.571,103.228C640,103.362,731.429,102.442,822.857,90.955C914.286,79.468,1005.714,57.415,1097.143,55.552C1188.571,53.69,1280,72.018,1371.429,66.401C1462.857,60.783,1554.286,31.221,1645.714,29.544C1737.143,27.868,1828.571,54.077,1874.286,67.182L1920,80.287L1920,1080L1874.286,1080C1828.571,1080,1737.143,1080,1645.714,1080C1554.286,1080,1462.857,1080,1371.429,1080C1280,1080,1188.571,1080,1097.143,1080C1005.714,1080,914.286,1080,822.857,1080C731.429,1080,640,1080,548.571,1080C457.143,1080,365.714,1080,274.286,1080C182.857,1080,91.429,1080,45.714,1080L0,1080Z"></path></g><g transform="translate(0, 108)"><path fill="rgb(31, 31, 31)" fill-opacity="1" d="M0,40.828L45.714,35.23C91.429,29.632,182.857,18.437,274.286,24.216C365.714,29.995,457.143,52.749,548.571,56.851C640,60.954,731.429,46.406,822.857,39.124C914.286,31.842,1005.714,31.827,1097.143,42.382C1188.571,52.937,1280,74.063,1371.429,85.409C1462.857,96.755,1554.286,98.322,1645.714,85.402C1737.143,72.483,1828.571,45.079,1874.286,31.377L1920,17.674L1920,972L1874.286,972C1828.571,972,1737.143,972,1645.714,972C1554.286,972,1462.857,972,1371.429,972C1280,972,1188.571,972,1097.143,972C1005.714,972,914.286,972,822.857,972C731.429,972,640,972,548.571,972C457.143,972,365.714,972,274.286,972C182.857,972,91.429,972,45.714,972L0,972Z"></path></g><g transform="translate(0, 216)"><path fill="rgb(35, 35, 35)" fill-opacity="1" d="M0,32.136L45.714,40.292C91.429,48.448,182.857,64.76,274.286,76.299C365.714,87.838,457.143,94.605,548.571,90.154C640,85.704,731.429,70.036,822.857,54.094C914.286,38.152,1005.714,21.937,1097.143,13.009C1188.571,4.082,1280,2.442,1371.429,12.324C1462.857,22.205,1554.286,43.607,1645.714,50.335C1737.143,57.062,1828.571,49.114,1874.286,45.14L1920,41.166L1920,864L1874.286,864C1828.571,864,1737.143,864,1645.714,864C1554.286,864,1462.857,864,1371.429,864C1280,864,1188.571,864,1097.143,864C1005.714,864,914.286,864,822.857,864C731.429,864,640,864,548.571,864C457.143,864,365.714,864,274.286,864C182.857,864,91.429,864,45.714,864L0,864Z"></path></g><g transform="translate(0, 324)"><path fill="rgb(38, 38, 38)" fill-opacity="1" d="M0,15.445L45.714,17.39C91.429,19.334,182.857,23.224,274.286,25.982C365.714,28.741,457.143,30.37,548.571,39.917C640,49.464,731.429,66.93,822.857,78.825C914.286,90.72,1005.714,97.043,1097.143,100.835C1188.571,104.628,1280,105.891,1371.429,98.587C1462.857,91.284,1554.286,75.414,1645.714,62.788C1737.143,50.162,1828.571,40.78,1874.286,36.089L1920,31.397L1920,756L1874.286,756C1828.571,756,1737.143,756,1645.714,756C1554.286,756,1462.857,756,1371.429,756C1280,756,1188.571,756,1097.143,756C1005.714,756,914.286,756,822.857,756C731.429,756,640,756,548.571,756C457.143,756,365.714,756,274.286,756C182.857,756,91.429,756,45.714,756L0,756Z"></path></g><g transform="translate(0, 432)"><path fill="rgb(39, 39, 39)" fill-opacity="1" d="M0,10.411L45.714,24.244C91.429,38.077,182.857,65.744,274.286,81.65C365.714,97.557,457.143,101.704,548.571,103.924C640,106.145,731.429,106.439,822.857,100.284C914.286,94.13,1005.714,81.526,1097.143,73.655C1188.571,65.785,1280,62.647,1371.429,56.238C1462.857,49.828,1554.286,40.145,1645.714,47.793C1737.143,55.441,1828.571,80.42,1874.286,92.909L1920,105.398L1920,648L1874.286,648C1828.571,648,1737.143,648,1645.714,648C1554.286,648,1462.857,648,1371.429,648C1280,648,1188.571,648,1097.143,648C1005.714,648,914.286,648,822.857,648C731.429,648,640,648,548.571,648C457.143,648,365.714,648,274.286,648C182.857,648,91.429,648,45.714,648L0,648Z"></path></g><g transform="translate(0, 540)"><path fill="rgb(38, 38, 38)" fill-opacity="1" d="M0,92.962L45.714,93.856C91.429,94.75,182.857,96.539,274.286,94.464C365.714,92.389,457.143,86.451,548.571,71.637C640,56.823,731.429,33.133,822.857,35.969C914.286,38.806,1005.714,68.17,1097.143,74.842C1188.571,81.513,1280,65.492,1371.429,51.869C1462.857,38.246,1554.286,27.021,1645.714,26.789C1737.143,26.558,1828.571,37.32,1874.286,42.702L1920,48.083L1920,540L1874.286,540C1828.571,540,1737.143,540,1645.714,540C1554.286,540,1462.857,540,1371.429,540C1280,540,1188.571,540,1097.143,540C1005.714,540,914.286,540,822.857,540C731.429,540,640,540,548.571,540C457.143,540,365.714,540,274.286,540C182.857,540,91.429,540,45.714,540L0,540Z"></path></g><g transform="translate(0, 648)"><path fill="rgb(35, 35, 35)" fill-opacity="1" d="M0,105.781L45.714,97.318C91.429,88.855,182.857,71.93,274.286,61.956C365.714,51.982,457.143,48.96,548.571,40.929C640,32.898,731.429,19.858,822.857,13.184C914.286,6.509,1005.714,6.2,1097.143,12.071C1188.571,17.943,1280,29.994,1371.429,46.327C1462.857,62.66,1554.286,83.275,1645.714,90.265C1737.143,97.255,1828.571,90.621,1874.286,87.303L1920,83.986L1920,432L1874.286,432C1828.571,432,1737.143,432,1645.714,432C1554.286,432,1462.857,432,1371.429,432C1280,432,1188.571,432,1097.143,432C1005.714,432,914.286,432,822.857,432C731.429,432,640,432,548.571,432C457.143,432,365.714,432,274.286,432C182.857,432,91.429,432,45.714,432L0,432Z"></path></g><g transform="translate(0, 756)"><path fill="rgb(31, 31, 31)" fill-opacity="1" d="M0,14.756L45.714,29.134C91.429,43.512,182.857,72.267,274.286,76.759C365.714,81.25,457.143,61.479,548.571,56.845C640,52.211,731.429,62.715,822.857,63.362C914.286,64.009,1005.714,54.8,1097.143,55.881C1188.571,56.963,1280,68.337,1371.429,73.869C1462.857,79.401,1554.286,79.093,1645.714,73.786C1737.143,68.48,1828.571,58.176,1874.286,53.024L1920,47.872L1920,324L1874.286,324C1828.571,324,1737.143,324,1645.714,324C1554.286,324,1462.857,324,1371.429,324C1280,324,1188.571,324,1097.143,324C1005.714,324,914.286,324,822.857,324C731.429,324,640,324,548.571,324C457.143,324,365.714,324,274.286,324C182.857,324,91.429,324,45.714,324L0,324Z"></path></g><g transform="translate(0, 864)"><path fill="rgb(26, 26, 26)" fill-opacity="1" d="M0,60.944L45.714,60.895C91.429,60.847,182.857,60.749,274.286,59.689C365.714,58.629,457.143,56.607,548.571,54.833C640,53.059,731.429,51.532,822.857,44.268C914.286,37.003,1005.714,24.002,1097.143,16.237C1188.571,8.473,1280,5.947,1371.429,9.555C1462.857,13.162,1554.286,22.903,1645.714,29.026C1737.143,35.15,1828.571,37.656,1874.286,38.91L1920,40.163L1920,216L1874.286,216C1828.571,216,1737.143,216,1645.714,216C1554.286,216,1462.857,216,1371.429,216C1280,216,1188.571,216,1097.143,216C1005.714,216,914.286,216,822.857,216C731.429,216,640,216,548.571,216C457.143,216,365.714,216,274.286,216C182.857,216,91.429,216,45.714,216L0,216Z"></path></g><g transform="translate(0, 972)"><path fill="rgb(21, 21, 21)" fill-opacity="1" d="M0,36.051L45.714,39.938C91.429,43.825,182.857,51.598,274.286,57.199C365.714,62.801,457.143,66.23,548.571,71.598C640,76.967,731.429,84.275,822.857,83.027C914.286,81.779,1005.714,71.975,1097.143,61.838C1188.571,51.7,1280,41.229,1371.429,41.49C1462.857,41.751,1554.286,52.744,1645.714,50.998C1737.143,49.252,1828.571,34.766,1874.286,27.523L1920,20.28L1920,108L1874.286,108C1828.571,108,1737.143,108,1645.714,108C1554.286,108,1462.857,108,1371.429,108C1280,108,1188.571,108,1097.143,108C1005.714,108,914.286,108,822.857,108C731.429,108,640,108,548.571,108C457.143,108,365.714,108,274.286,108C182.857,108,91.429,108,45.714,108L0,108Z"></path></g></g></svg>